<mxfile>
    <diagram id="B02jcqE2dlhzdqF7ksvG" name="Page-1">
        <mxGraphModel dx="342" dy="568" grid="0" gridSize="10" guides="1" tooltips="1" connect="1" arrows="1" fold="1" page="1" pageScale="1" pageWidth="850" pageHeight="1100" math="0" shadow="0">
            <root>
                <mxCell id="oTpr-UV138n6AohWSnv2-0"/>
                <mxCell id="oTpr-UV138n6AohWSnv2-1" parent="oTpr-UV138n6AohWSnv2-0"/>
                <mxCell id="DWrG3ifRB4GOe69Trqt_-3" value="" style="rounded=1;whiteSpace=wrap;html=1;fillColor=#B2C9AB;strokeColor=#788AA3;fontColor=#46495D;" parent="oTpr-UV138n6AohWSnv2-1" vertex="1">
                    <mxGeometry x="120" y="200" width="280" height="300" as="geometry"/>
                </mxCell>
                <mxCell id="DWrG3ifRB4GOe69Trqt_-5" value="&lt;p style=&quot;line-height: 100%&quot;&gt;&lt;/p&gt;&lt;h1 style=&quot;font-size: 16px&quot;&gt;Project Requirements&lt;/h1&gt;&lt;h1 style=&quot;font-size: 11px&quot;&gt;&lt;font style=&quot;font-size: 11px ; font-weight: normal&quot;&gt;Details...&amp;nbsp;&lt;/font&gt;&lt;/h1&gt;&lt;h1 style=&quot;font-size: 11px&quot;&gt;&lt;font style=&quot;font-size: 11px ; font-weight: normal&quot;&gt;Details...&amp;nbsp;&lt;/font&gt;&lt;/h1&gt;&lt;h1 style=&quot;font-size: 11px&quot;&gt;&lt;font style=&quot;font-size: 11px ; font-weight: normal&quot;&gt;Details...&amp;nbsp;&lt;/font&gt;&lt;/h1&gt;&lt;p&gt;&lt;/p&gt;" style="text;html=1;strokeColor=none;fillColor=none;spacing=5;spacingTop=-20;whiteSpace=wrap;overflow=hidden;rounded=0;fontColor=#46495D;" parent="oTpr-UV138n6AohWSnv2-1" vertex="1">
                    <mxGeometry x="139.31034482758622" y="210" width="183.44827586206898" height="90" as="geometry"/>
                </mxCell>
                <mxCell id="DWrG3ifRB4GOe69Trqt_-10" value="&lt;font style=&quot;font-size: 15px&quot;&gt;NAVBAR&lt;/font&gt;" style="text;html=1;strokeColor=none;fillColor=none;align=center;verticalAlign=middle;whiteSpace=wrap;rounded=0;fontColor=#46495D;" parent="oTpr-UV138n6AohWSnv2-1" vertex="1">
                    <mxGeometry x="350" y="80" width="90" height="30" as="geometry"/>
                </mxCell>
                <mxCell id="DWrG3ifRB4GOe69Trqt_-11" value="" style="endArrow=none;dashed=1;html=1;dashPattern=1 3;strokeWidth=2;entryX=0.5;entryY=1;entryDx=0;entryDy=0;exitX=0.75;exitY=0;exitDx=0;exitDy=0;strokeColor=#788AA3;fontColor=#46495D;" parent="oTpr-UV138n6AohWSnv2-1" source="DWrG3ifRB4GOe69Trqt_-12" target="DWrG3ifRB4GOe69Trqt_-10" edge="1">
                    <mxGeometry x="200" y="170" width="50" height="50" as="geometry">
                        <mxPoint x="310" y="250" as="sourcePoint"/>
                        <mxPoint x="360" y="200" as="targetPoint"/>
                    </mxGeometry>
                </mxCell>
                <mxCell id="DWrG3ifRB4GOe69Trqt_-12" value="" style="rounded=1;whiteSpace=wrap;html=1;fillColor=#B2C9AB;strokeColor=#788AA3;fontColor=#46495D;" parent="oTpr-UV138n6AohWSnv2-1" vertex="1">
                    <mxGeometry x="120" y="160" width="280" height="40" as="geometry"/>
                </mxCell>
                <mxCell id="DWrG3ifRB4GOe69Trqt_-13" value="Home | Daily | Weekly" style="text;html=1;strokeColor=none;fillColor=none;align=center;verticalAlign=middle;whiteSpace=wrap;rounded=0;fontColor=#46495D;" parent="oTpr-UV138n6AohWSnv2-1" vertex="1">
                    <mxGeometry x="260" y="170" width="140" height="20" as="geometry"/>
                </mxCell>
                <mxCell id="DWrG3ifRB4GOe69Trqt_-0" value="&lt;font&gt;&lt;span style=&quot;font-size: 15px&quot;&gt;HOME VIEW&lt;/span&gt;&lt;/font&gt;" style="text;html=1;strokeColor=none;fillColor=none;align=center;verticalAlign=middle;whiteSpace=wrap;rounded=0;fontColor=#46495D;" parent="oTpr-UV138n6AohWSnv2-1" vertex="1">
                    <mxGeometry x="80" y="80" width="130" height="30" as="geometry"/>
                </mxCell>
                <mxCell id="DWrG3ifRB4GOe69Trqt_-14" value="" style="endArrow=none;dashed=1;html=1;dashPattern=1 3;strokeWidth=2;exitX=0.5;exitY=1;exitDx=0;exitDy=0;entryX=0.25;entryY=0;entryDx=0;entryDy=0;strokeColor=#788AA3;fontColor=#46495D;" parent="oTpr-UV138n6AohWSnv2-1" source="DWrG3ifRB4GOe69Trqt_-0" target="DWrG3ifRB4GOe69Trqt_-3" edge="1">
                    <mxGeometry x="80" y="80" width="50" height="50" as="geometry">
                        <mxPoint x="310" y="240" as="sourcePoint"/>
                        <mxPoint x="360" y="190" as="targetPoint"/>
                    </mxGeometry>
                </mxCell>
            </root>
        </mxGraphModel>
    </diagram>
</mxfile>